<svg width="720" height="420" viewBox="0 0 720 420" fill="none" xmlns="http://www.w3.org/2000/svg">
  <rect width="720" height="420" rx="24" fill="#F6F8FB"/>
  <rect x="40" y="40" width="640" height="340" rx="18" fill="#FFFFFF" stroke="#D8E1EC" stroke-width="4"/>
  <path d="M120 110H600" stroke="#0F766E" stroke-width="8" stroke-linecap="round"/>
  <path d="M120 162H520" stroke="#C9D6E3" stroke-width="6" stroke-linecap="round"/>
  <path d="M120 206H560" stroke="#C9D6E3" stroke-width="6" stroke-linecap="round"/>
  <path d="M120 250H480" stroke="#C9D6E3" stroke-width="6" stroke-linecap="round"/>
  <rect x="120" y="290" width="170" height="42" rx="21" fill="#D7F3F1"/>
  <rect x="306" y="290" width="126" height="42" rx="21" fill="#E8EDF5"/>
  <path d="M86 40V380" stroke="#E8EDF5" stroke-width="2"/>
  <path d="M150 40V380" stroke="#E8EDF5" stroke-width="2"/>
  <path d="M214 40V380" stroke="#E8EDF5" stroke-width="2"/>
  <path d="M278 40V380" stroke="#E8EDF5" stroke-width="2"/>
  <path d="M342 40V380" stroke="#E8EDF5" stroke-width="2"/>
  <path d="M406 40V380" stroke="#E8EDF5" stroke-width="2"/>
  <path d="M470 40V380" stroke="#E8EDF5" stroke-width="2"/>
  <path d="M534 40V380" stroke="#E8EDF5" stroke-width="2"/>
  <path d="M598 40V380" stroke="#E8EDF5" stroke-width="2"/>
  <path d="M40 96H680" stroke="#E8EDF5" stroke-width="2"/>
  <path d="M40 152H680" stroke="#E8EDF5" stroke-width="2"/>
  <path d="M40 208H680" stroke="#E8EDF5" stroke-width="2"/>
  <path d="M40 264H680" stroke="#E8EDF5" stroke-width="2"/>
  <path d="M40 320H680" stroke="#E8EDF5" stroke-width="2"/>
</svg>
