<svg xmlns="http://www.w3.org/2000/svg" xml:space="preserve" width="800" height="800" viewBox="0 0 474.4 474.4"><path d="M236.8 61.6a118 118 0 0 1 28-32c-6.2-10-12.3-18.5-16.1-23.3-3.2-4-7.3-6.3-11.5-6.3s-8.3 2.2-11.5 6.3c-3.9 5-10.2 13.7-16.4 24 11 9.2 21.4 20 27.5 31.3zM61.6 237.7a118 118 0 0 1-32-28c-10 6.1-18.5 12.2-23.3 16C2.3 229 0 233 0 237.2s2.2 8.3 6.3 11.5a263 263 0 0 0 24 16.4c9.2-10.9 20-21.4 31.3-27.4zM388.4 109.2c5 0 10 .3 15 .7 2.8-11.4 4.5-21.7 5.2-27.8.6-4.9-.5-9.2-3.2-12.1a13.7 13.7 0 0 0-10.6-4.3l-2.4.1c-6.3.8-17 2.5-28.6 5.3 1.2 14.3 1 29.3-2.7 41.6a94.7 94.7 0 0 1 27.3-3.5zM468.1 225.7c-5-3.9-13.7-10.2-24-16.4-9.2 11-20 21.4-31.2 27.5a118 118 0 0 1 32 28 262 262 0 0 0 23.2-16.1c4.1-3.2 6.3-7.3 6.3-11.5s-2.2-8.3-6.3-11.5zM403.3 363.7c-5 .5-10 .7-15 .7a93.4 93.4 0 0 1-26.6-3.3 118 118 0 0 1 2.9 42.4 262 262 0 0 0 30.2 5.3c4.5 0 8.1-1.5 10.6-4.3 2.7-3 3.8-7.3 3.2-12.1a263 263 0 0 0-5.3-28.7zM237.7 412.9a118 118 0 0 1-28 32 262 262 0 0 0 16 23.2c3.2 4.1 7.3 6.3 11.5 6.3s8.3-2.2 11.5-6.3a263 263 0 0 0 16.4-24c-10.9-9.2-21.4-20-27.4-31.2zM237.2 109.7a127.6 127.6 0 0 0-127.5 127.5c0 70.3 57.2 127.5 127.5 127.5s127.5-57.2 127.5-127.5-57.2-127.5-127.5-127.5zM251.3 85.6c.2.5.5 1 .9 1.4 30.1 3 57.6 14.9 80 33 2-.2 5.1-1.2 8.6-9.8 8.9-21.5-.7-66.6-5.2-82.2-2-7-6.8-11-12.9-11a17 17 0 0 0-8.3 2.3c-14 8-52.6 33.3-61.4 54.7-1.5 3.7-3 8.7-1.7 11.6zM141.7 120.5A150.2 150.2 0 0 1 221.5 87l.9-1.4c1.3-3-.2-8-1.8-11.6-8.9-21.4-47.6-46.5-61.7-54.4a17 17 0 0 0-8.3-2.3c-6.1 0-11 4.1-12.9 11.1-4.3 15.6-13.7 60.8-4.7 82.2 3.5 8.6 6.7 9.6 8.7 9.8zM74 221.5c3.6 1.4 6.5 2.2 8.9 2.2 1.5 0 2.9-.5 4.1-1.6v.1c3-30 14.9-57.6 33-79.9l-.4-1.7c-1.2-3-5.8-5.5-9.4-7a65 65 0 0 0-24-3.6 253 253 0 0 0-58.2 8.8c-5 1.4-8.6 4.3-10.2 8.2-1.6 3.9-1 8.5 1.5 13 8 14.1 33.3 52.7 54.7 61.5zM391.5 222.9c2.3 0 5.3-.8 8.8-2.3 21.4-8.9 46.6-47.6 54.4-61.7 2.6-4.5 3-9.2 1.4-13-1.6-3.9-5.2-6.8-10.2-8.2-.3 0-30.8-8.5-57.5-8.5a66 66 0 0 0-24.7 3.8c-3.6 1.5-8.2 4-9.3 7-.2.5-.4 1-.4 1.7a150.2 150.2 0 0 1 33.3 79.7c1.3 1 2.6 1.5 4.2 1.5zM400.4 253a24.5 24.5 0 0 0-8.8-2.2c-1.6 0-3 .5-4.2 1.5v-.1c-3 30-14.8 57.6-33 80l.5 1.7c1.1 3 5.7 5.4 9.4 7a65 65 0 0 0 24 3.5c27 0 57.8-8.7 58.1-8.8 5-1.4 8.6-4.3 10.2-8.2 1.6-3.8 1-8.5-1.5-13-8-14-33.3-52.6-54.7-61.4zM332.8 354a150.2 150.2 0 0 1-79.8 33.3l-1 1.5c-1.3 3 .3 7.9 1.8 11.5 9 21.4 47.6 46.6 61.7 54.4a17 17 0 0 0 8.3 2.4c6.1 0 11-4.2 13-11.2 4.3-15.6 13.6-60.8 4.7-82.2-3.6-8.6-6.8-9.6-8.7-9.7zM223.2 388.8c-.2-.5-.6-1-1-1.4-30-3-57.6-14.8-79.9-33-2 .2-5.2 1.3-8.7 9.9-8.8 21.4.8 66.5 5.2 82.1 2 7 6.8 11.1 13 11.1a17 17 0 0 0 8.2-2.4c14.1-8 52.7-33.3 61.5-54.7 1.5-3.6 3-8.6 1.7-11.6zM83 251.6c-2.3 0-5.3.7-8.9 2.2-21.4 9-46.5 47.6-54.4 61.7-2.5 4.6-3 9.2-1.4 13 1.6 4 5.2 6.8 10.2 8.2.3.1 30.8 8.5 57.6 8.5a66 66 0 0 0 24.6-3.7c3.6-1.5 8.2-4 9.4-7 .2-.5.3-1.1.3-1.8a150.3 150.3 0 0 1-33.3-79.6 6.4 6.4 0 0 0-4.1-1.5zM71.2 110.7c5-.4 10-.7 15-.7 10.2 0 19.1 1.1 26.5 3.4a118 118 0 0 1-2.9-42.5 260.7 260.7 0 0 0-30.2-5.2c-4.4 0-8 1.5-10.6 4.3-2.6 3-3.7 7.2-3.2 12 .8 6.3 2.5 17 5.4 28.7zM86 365.2c-5 0-10-.2-15-.7a261 261 0 0 0-5.2 27.9c-.5 4.8.6 9.1 3.2 12 2.5 2.9 6.2 4.4 10.6 4.4.8 0 1.6 0 2.5-.2 6.2-.7 16.9-2.5 28.5-5.3-1.2-14.3-1-29.3 2.7-41.5a94.7 94.7 0 0 1-27.2 3.4z"/></svg>