<svg xmlns="http://www.w3.org/2000/svg" viewBox="0 0 512 512"><path class="theme-icon-petal" d="M376 20a24 24 0 0 0-37-16l-83 57-82-57a24 24 0 0 0-38 16l-18 98-98 18a24 24 0 0 0-16 38l57 82-57 83a24 24 0 0 0 16 37l98 18 18 98a24 24 0 0 0 37 16l83-57 83 57a24 24 0 0 0 37-16l18-98 98-18a24 24 0 0 0 16-37l-57-83 57-82a24 24 0 0 0-16-38l-98-18-18-98zm-106 90 65-45 15 78c1 10 9 18 19 19l78 15-45 65c-6 9-6 19 0 28l45 65-78 15c-10 1-18 9-19 19l-15 78-65-45c-9-6-19-6-28 0l-65 45-15-78c-1-10-9-18-19-19l-78-15 45-65c6-9 6-19 0-28l-45-65 78-15c10-1 18-9 19-19l15-78 65 45c9 6 19 6 28 0z"/><path class="theme-icon-circle" d="M256 368a112 112 0 1 0 0-224 112 112 0 1 0 0 224zm-64-112a64 64 0 1 1 128 0 64 64 0 1 1-128 0z"/></svg>